<svg xmlns="http://www.w3.org/2000/svg" viewBox="0 0 64 64" enable-background="new 0 0 64 64">
    <rect x="1" y="1" width="1198" height="598"
        stroke="blue" stroke-width="1" />

    <g fill="none">
    	<rect x="2" y="1" width="1198" height="598"
        	stroke="blue" stroke-width="1" />

    	<path d="M200,300 Q400,50 600,300 T1000,300"
        	stroke="red" stroke-width="5"  />

        <g fill="none">
    	    <rect x="3" y="1" width="1198" height="598"
        	    stroke="blue" stroke-width="1" />

    	    <path d="M200,300 Q400,50 600,300 T1000,300"
        	    stroke="red" stroke-width="5"  />
                
            <g fill="none">
    	        <rect x="4" y="1" width="1198" height="598"
        	        stroke="blue" stroke-width="1" />

				<rect x="5" y="1" width="1198" height="598"
        	        stroke="blue" stroke-width="1" />

    	        <path d="M200,300 Q400,50 600,300 T1000,300"
        	        stroke="red" stroke-width="5"  />
                
            </g>
        </g>
    </g>

    <g fill="none">
        <rect x="4" y="1" width="1198" height="598"
            stroke="blue" stroke-width="1" />


            <g fill="none">
                <rect x="4" y="1" width="1198" height="598"
                    stroke="blue" stroke-width="1" />

                <rect x="5" y="1" width="1198" height="598"
                    stroke="blue" stroke-width="1" />

                <path d="M200,300 Q400,50 600,300 T1000,300"
                    stroke="red" stroke-width="5"  />
                
            </g>
                
    </g>

    <g fill="none">
                <rect x="4" y="1" width="1198" height="598"
                    stroke="blue" stroke-width="1" />

                <rect x="5" y="1" width="1198" height="598"
                    stroke="blue" stroke-width="1" />

                <path d="M200,300 Q400,50 600,300 T1000,300"
                    stroke="red" stroke-width="5"  />
                
    </g>
  
</svg>